<svg version="1.1" id="Layer_1" xmlns="http://www.w3.org/2000/svg" xmlns:xlink="http://www.w3.org/1999/xlink" x="0px" y="0px"
	 width="100%" viewBox="0 0 1024 917" enable-background="new 0 0 1024 917" xml:space="preserve">
<path fill="#FFFFFF" opacity="1.000000" stroke="none" 
	d="
M482.000000,918.000000 
	C321.333344,918.000000 161.166672,918.000000 1.000000,918.000000 
	C1.000000,612.333313 1.000000,306.666656 1.000000,1.000000 
	C342.333344,1.000000 683.666687,1.000000 1025.000000,1.000000 
	C1025.000000,306.666656 1025.000000,612.333313 1025.000000,918.000000 
	C844.166687,918.000000 663.333313,918.000000 482.000000,918.000000 
M706.173828,282.925293 
	C704.455688,282.986755 702.737488,283.048218 700.230469,282.899475 
	C699.144104,282.940369 698.057739,282.981262 696.356873,282.583832 
	C688.933594,281.987366 688.934998,281.987366 688.945984,289.434631 
	C688.951294,293.064087 688.945862,296.693573 688.953369,300.323029 
	C688.967285,307.031464 689.881348,307.677917 697.817139,306.125854 
	C699.205383,306.061310 700.593689,305.996765 702.818420,306.076599 
	C704.222229,306.020905 705.625977,305.965179 707.916138,306.119598 
	C709.302673,306.028015 710.689148,305.936401 711.875427,305.858063 
	C711.875427,297.844940 711.875427,290.447021 711.875427,282.823181 
	C709.976257,282.943604 708.492981,283.037659 706.173828,282.925293 
M722.748840,264.651978 
	C722.444763,264.552368 722.247681,264.644043 721.408020,264.901337 
	C720.909668,264.948273 720.411316,264.995209 719.227295,264.748169 
	C716.949768,265.159882 712.893860,265.180481 712.702393,266.050964 
	C711.871826,269.827515 711.711243,273.937256 712.415833,277.719330 
	C712.569214,278.542450 717.287170,278.515167 720.688904,279.010437 
	C722.615845,279.010437 724.542786,279.010437 726.907654,279.010437 
	C726.907654,275.269775 726.733826,271.840027 726.957764,268.436462 
	C727.170837,265.198517 725.767822,264.298004 722.748840,264.651978 
M725.593201,309.249603 
	C723.337402,309.104187 721.048767,309.149841 718.833679,308.768219 
	C715.584229,308.208405 714.495361,309.910339 714.546875,312.636047 
	C714.697266,320.591064 714.900574,328.548462 715.341919,336.490601 
	C715.401184,337.556183 716.938599,339.399292 717.811218,339.410950 
	C721.548889,339.460999 725.293945,338.960083 729.940063,338.756775 
	C732.972229,338.700653 736.004395,338.644531 739.890015,338.776855 
	C741.469604,338.776855 743.049194,338.776855 744.675415,338.776855 
	C744.675415,328.773315 744.675415,319.316132 744.675415,309.569763 
	C742.215759,309.686249 740.095947,309.786652 737.106018,309.637970 
	C734.404358,309.725464 731.702759,309.812958 728.286011,309.687469 
	C727.542847,309.690521 726.799744,309.693573 725.593201,309.249603 
M585.134644,339.404419 
	C577.431641,339.499695 569.728699,339.594971 561.139099,339.373779 
	C548.129822,339.472382 535.120605,339.570984 521.209961,339.328247 
	C511.818665,339.409271 502.427368,339.490295 492.133789,339.299744 
	C483.112396,339.382843 474.091034,339.465942 464.156738,339.267639 
	C456.126160,339.331757 448.095581,339.395844 439.155487,339.194946 
	C429.792084,339.364594 420.428650,339.534210 410.597900,339.577087 
	C410.597900,339.577087 410.120850,339.659973 409.412964,339.302734 
	C407.755005,339.255219 406.094482,339.125061 404.439514,339.175507 
	C399.326111,339.331360 397.251556,341.395782 397.251190,346.563477 
	C397.247772,394.256775 397.245270,441.950165 397.410614,489.642944 
	C397.418060,491.784821 399.038177,493.921112 399.950928,496.044769 
	C399.950928,496.044769 399.955536,496.090912 400.363739,496.746704 
	C412.247559,496.891113 424.131378,497.035522 436.948181,497.259277 
	C446.622955,497.228912 456.297699,497.198578 466.906586,497.295746 
	C476.972961,497.305359 487.039337,497.314972 498.024017,497.415710 
	C507.664001,497.341278 517.303955,497.266815 527.663025,497.479034 
	C533.480774,497.497955 539.298950,497.568604 545.116150,497.522186 
	C551.749939,497.469269 558.382935,497.311981 565.912598,497.480042 
	C574.277222,497.380524 582.641907,497.281006 591.901855,497.467285 
	C598.951477,497.373566 606.001038,497.279877 613.898743,497.473297 
	C615.230042,497.502167 616.561279,497.553894 617.892639,497.556335 
	C627.559204,497.574158 628.227966,496.959778 628.231567,487.497131 
	C628.249084,441.039612 628.243408,394.582123 628.245239,348.124603 
	C628.245300,347.292053 628.235779,346.459503 628.234009,345.626953 
	C628.225647,341.753693 626.473328,339.843384 622.413696,339.940460 
	C617.964355,340.046967 613.507019,339.819275 608.155945,339.425201 
	C600.776123,339.527344 593.396240,339.629486 585.134644,339.404419 
M480.323151,505.856842 
	C479.889587,505.907959 479.455994,505.959076 478.376648,505.627258 
	C477.550537,505.559235 476.717285,505.538757 475.899536,505.415344 
	C471.280884,504.717926 471.235931,507.631348 471.342865,510.934296 
	C471.446808,514.143188 470.774109,517.415161 475.977173,516.950317 
	C481.258545,516.478455 486.598145,516.658386 492.754578,516.681885 
	C498.867310,516.645569 504.980011,516.609253 512.000244,516.752502 
	C525.945007,516.752502 539.889771,516.752502 553.979614,516.752502 
	C553.979614,512.895996 553.979614,509.519806 553.979614,505.925720 
	C546.791443,505.925720 539.992920,505.925720 532.970215,505.318298 
	C532.656921,504.522003 532.343628,503.725739 532.142700,502.287506 
	C532.064270,501.864105 531.985901,501.440674 531.996826,500.511383 
	C531.341919,500.383240 530.687012,500.255096 529.137878,499.993469 
	C526.435547,500.046204 523.733276,500.098938 520.110291,499.934296 
	C512.715393,499.926208 505.314453,500.094147 497.928070,499.839783 
	C493.908844,499.701416 492.540802,501.243774 492.963501,505.477448 
	C492.850494,505.618073 492.737457,505.758698 491.764526,505.783691 
	C488.535919,505.850403 485.307281,505.917114 481.841797,505.738068 
	C481.550049,505.825348 481.258301,505.912659 480.323151,505.856842 
M346.382050,517.131226 
	C355.257721,523.709961 365.111725,526.606201 376.052551,525.544922 
	C376.052551,515.479187 376.052551,505.922028 376.052551,496.402069 
	C362.593628,495.506409 359.546173,492.269196 359.502930,479.112732 
	C359.475525,470.781464 359.244843,462.440735 359.553558,454.120880 
	C360.033203,441.195557 358.849426,428.814423 349.805756,418.519653 
	C357.470978,409.095459 359.927094,398.536896 359.567719,386.959106 
	C359.231903,376.138855 359.374969,365.297974 359.540497,354.469727 
	C359.679169,345.397888 364.138000,341.065430 373.087311,340.790375 
	C374.053802,340.760681 375.018341,340.668121 376.184113,340.591583 
	C376.184113,330.796722 376.184113,321.198212 376.184113,311.632538 
	C352.688568,308.574677 330.490692,327.517761 330.118805,350.908081 
	C329.906921,364.234894 330.121613,377.567963 330.051086,390.897766 
	C330.016571,397.423523 327.193909,401.177429 321.138428,403.204010 
	C320.098206,403.552155 319.061920,403.912018 318.225403,404.197662 
	C318.225403,414.012512 318.225403,423.450989 318.225403,432.810242 
	C328.003082,435.832367 330.067291,438.632233 330.071930,448.648346 
	C330.077087,459.812347 330.242279,470.979401 330.036926,482.139587 
	C329.777283,496.250519 335.086334,507.694000 346.382050,517.131226 
M694.115845,398.165100 
	C693.412903,395.321289 692.156677,392.487823 692.103027,389.631836 
	C691.874756,377.476318 691.863525,365.312012 692.051331,353.155182 
	C692.168091,345.594238 690.200439,338.689575 686.625793,332.160248 
	C678.783997,317.836548 660.129089,308.537903 646.252319,311.859039 
	C646.252319,321.472198 646.252319,331.039185 646.252319,340.563690 
	C659.641296,341.457489 662.717285,344.788330 662.715149,357.968628 
	C662.713928,365.464355 662.875854,372.964325 662.680054,380.454926 
	C662.323975,394.077209 662.416931,407.535492 672.238892,418.261139 
	C664.095520,430.328247 662.765686,434.697357 662.733826,449.103912 
	C662.711731,459.098206 662.695190,469.092590 662.721680,479.086823 
	C662.755920,492.003693 659.749390,495.311646 647.002441,496.303558 
	C646.725098,496.325134 646.471619,496.654755 646.055908,496.946777 
	C646.055908,506.280426 646.055908,515.712708 646.055908,525.104004 
	C667.899353,529.213501 691.421387,509.666748 691.919250,486.987915 
	C692.182373,475.000366 692.271606,462.993805 691.901733,451.012421 
	C691.613220,441.667816 693.606750,434.385681 704.076050,432.890228 
	C704.076050,422.996429 704.076050,413.549988 704.076050,405.236206 
	C700.450073,402.765594 697.521240,400.769989 694.115845,398.165100 
M419.129669,646.867676 
	C420.303680,638.514038 421.477722,630.160400 422.651733,621.806763 
	C424.403717,623.271667 425.184143,624.710266 425.862701,626.195435 
	C431.251587,637.990356 436.479248,649.862915 442.134094,661.528564 
	C443.092499,663.505737 445.884521,665.802063 447.788269,665.766174 
	C449.615692,665.731689 451.875854,663.154053 453.078796,661.168640 
	C455.134521,657.775574 456.501678,653.966980 458.177917,650.342163 
	C462.605896,640.766724 467.044495,631.196228 472.037811,620.417236 
	C472.562042,622.848267 472.865936,623.910645 473.013397,624.994324 
	C474.696228,637.360962 476.283173,649.741638 478.122986,662.084656 
	C478.325134,663.440979 479.891144,665.613037 480.910400,665.663086 
	C487.515350,665.988159 494.144104,665.829834 501.412323,665.829834 
	C497.313568,638.452759 493.309662,611.709045 489.244781,584.558167 
	C482.334686,584.558167 475.701080,584.382935 469.091705,584.705261 
	C467.761230,584.770142 466.001129,586.470947 465.334229,587.850342 
	C462.732758,593.231140 460.504669,598.791809 458.112030,604.274414 
	C454.746826,611.985474 451.358795,619.686523 447.728424,627.966980 
	C446.906464,626.370178 446.405945,625.518494 446.014465,624.619324 
	C440.771088,612.575745 435.608765,600.496033 430.230438,588.513184 
	C429.531982,586.957031 427.798492,584.852600 426.443176,584.775208 
	C419.704834,584.390564 412.932648,584.599670 405.964508,584.599670 
	C401.837921,611.877075 397.798584,638.577576 393.733154,665.450623 
	C401.915741,665.450623 409.294830,665.450623 416.685303,665.450623 
	C417.507202,659.299622 418.278381,653.527954 419.129669,646.867676 
M225.284927,584.775452 
	C220.645370,584.775452 216.005814,584.775452 210.716431,584.775452 
	C210.716431,598.486328 210.716431,611.786682 210.716431,626.456726 
	C200.793091,612.910034 191.796478,600.563049 182.694473,588.294189 
	C181.673050,586.917419 180.108612,585.084412 178.703690,584.999939 
	C172.639771,584.635925 166.541473,584.844299 160.582794,584.844299 
	C160.582794,612.029785 160.582794,638.747192 160.582794,665.568176 
	C167.880539,665.568176 174.798706,665.568176 182.136124,665.568176 
	C182.136124,651.590881 182.136124,637.876892 182.136124,622.975525 
	C183.908966,625.070374 184.999420,626.215027 185.928009,627.478638 
	C194.101227,638.601013 202.186478,649.788757 210.455032,660.839539 
	C211.884842,662.750488 213.919983,665.265991 215.909439,665.498230 
	C221.405365,666.139587 227.025085,665.720093 232.465958,665.720093 
	C232.465958,638.486145 232.465958,611.781616 232.465958,584.773926 
	C230.177872,584.773926 228.195953,584.773926 225.284927,584.775452 
M506.851776,639.706482 
	C509.598907,658.056030 525.783813,669.739136 545.781555,667.808105 
	C562.828430,666.161926 575.841492,653.686829 576.852051,638.022095 
	C578.011108,620.055237 568.442505,606.558228 551.613220,602.421570 
	C525.347717,595.965454 504.408173,612.981812 506.851776,639.706482 
M776.689392,667.988403 
	C778.854797,667.947083 781.039368,668.076599 783.182434,667.836182 
	C795.041443,666.505249 805.053650,661.928284 810.976501,650.944885 
	C818.892395,636.265686 815.360352,618.331360 802.837769,608.517456 
	C789.687012,598.211243 767.114136,598.662537 755.131714,609.886841 
	C744.715576,619.643982 742.260742,632.168701 746.377014,645.217590 
	C750.738220,659.042847 761.407715,666.257568 776.689392,667.988403 
M306.319794,616.253052 
	C297.964203,602.007935 276.827515,596.919922 261.197601,604.562439 
	C246.483841,611.757080 239.312866,628.800842 244.334503,644.633362 
	C249.356110,660.465698 265.677063,670.348450 282.300293,667.672546 
	C296.691772,665.355835 309.840973,653.946106 308.806641,644.710083 
	C304.357422,644.710083 299.874176,644.835083 295.401276,644.673218 
	C291.332581,644.526001 288.002533,645.230408 284.549805,648.065125 
	C277.190094,654.107422 266.355011,649.536987 265.163605,639.888245 
	C280.260345,639.888245 295.304016,639.888245 310.486633,639.888245 
	C312.096924,631.394653 310.604034,623.943787 306.319794,616.253052 
M586.577087,646.499084 
	C586.577087,652.787781 586.577087,659.076477 586.577087,665.542969 
	C594.004211,665.542969 600.893982,665.542969 608.241028,665.542969 
	C608.241028,655.627014 608.176575,646.003174 608.277771,636.381104 
	C608.310852,633.239258 608.446838,630.029419 609.119934,626.979614 
	C610.110046,622.493408 614.109619,619.824463 618.758240,619.928894 
	C623.684570,620.039673 625.896790,623.038391 626.494629,627.459961 
	C626.871765,630.249329 626.920959,633.096680 626.935181,635.919006 
	C626.984558,645.698486 626.954224,655.478455 626.954224,665.497925 
	C634.309082,665.497925 641.176025,665.497925 648.212585,665.497925 
	C648.212585,652.210876 648.507263,639.253357 648.145447,626.314209 
	C647.560303,605.388245 629.087219,594.944336 610.630188,604.861877 
	C608.650757,605.925415 606.756592,607.147705 604.799988,608.310059 
	C601.744751,602.374023 599.279114,601.787048 587.056641,603.648132 
	C586.930237,603.949341 586.694275,604.250183 586.693176,604.551941 
	C586.641602,618.201050 586.610596,631.850220 586.577087,646.499084 
M701.532166,638.383057 
	C700.716248,666.030701 716.033691,666.900635 738.523438,665.495789 
	C738.523438,659.456116 738.523438,653.397400 738.523438,646.817871 
	C735.646179,646.817871 733.002075,647.022583 730.402893,646.768005 
	C726.843872,646.419434 723.802124,645.027832 723.726807,640.807190 
	C723.606140,634.038147 723.694458,627.265442 723.694458,619.933289 
	C728.655884,619.933289 733.364258,619.933289 738.033569,619.933289 
	C738.033569,614.087219 738.033569,608.811890 738.033569,602.999390 
	C732.906372,602.999390 728.024048,602.999390 722.772583,602.999390 
	C722.772583,596.700928 722.772583,590.937439 722.772583,583.822815 
	C719.852966,585.276978 717.330078,585.855225 715.798889,587.410095 
	C707.986389,595.343628 700.301514,603.414368 692.880798,611.713318 
	C691.170349,613.626282 690.672668,616.623596 689.214783,620.073486 
	C694.282166,620.073486 697.707642,620.073486 701.532959,620.073486 
	C701.532959,626.158264 701.532959,631.785339 701.532166,638.383057 
M361.685120,647.063660 
	C359.028778,646.978638 356.363068,647.005127 353.718384,646.781921 
	C349.949493,646.463745 347.278320,644.448730 347.123230,640.589233 
	C346.852203,633.844788 347.047699,627.081543 347.047699,619.811035 
	C352.303894,619.811035 357.033325,619.811035 361.729980,619.811035 
	C361.729980,614.018127 361.729980,608.760254 361.729980,602.948486 
	C356.584717,602.948486 351.675140,602.948486 346.237976,602.948486 
	C346.237976,596.670410 346.237976,590.942444 346.237976,583.915771 
	C343.371674,585.295166 340.997925,585.785706 339.590668,587.222656 
	C331.680359,595.300171 323.867401,603.485107 316.350281,611.926392 
	C314.674500,613.808105 314.317657,616.864319 313.038330,620.202271 
	C317.997192,620.202271 321.419678,620.202271 325.263763,620.202271 
	C325.263763,629.070068 325.033936,637.541260 325.323151,645.994690 
	C325.667908,656.071655 331.573364,663.525818 340.641602,664.853455 
	C347.622925,665.875671 354.751587,665.891479 361.623840,666.342285 
	C361.966858,665.309998 362.152435,665.010376 362.153473,664.710083 
	C362.173035,659.053406 362.170776,653.396729 361.685120,647.063660 
M843.850098,608.457031 
	C842.958069,607.892944 841.992310,607.416870 841.190674,606.744873 
	C839.865234,605.633911 838.743530,603.531799 837.363037,603.375549 
	C833.315918,602.917480 829.183655,603.212463 825.219788,603.212463 
	C825.219788,624.421387 825.219788,644.984131 825.219788,665.576416 
	C832.359192,665.576416 839.112671,665.576416 846.072754,665.576416 
	C846.174622,664.186646 846.325989,663.047729 846.330872,661.908081 
	C846.370728,652.577759 846.156372,643.239563 846.469910,633.918945 
	C846.763855,625.180542 849.501831,622.852661 858.255615,622.831909 
	C860.671387,622.826233 863.087219,622.830994 865.456665,622.830994 
	C865.456665,615.759583 865.456665,609.507996 865.456665,603.091370 
	C857.655518,602.402771 850.493286,602.822205 843.850098,608.457031 
M682.976318,651.492798 
	C682.976318,635.603882 682.976318,619.714966 682.976318,603.658813 
	C675.633118,603.658813 668.890076,603.658813 661.884521,603.658813 
	C661.884521,624.420044 661.884521,644.938843 661.884521,665.560852 
	C668.937317,665.560852 675.679138,665.560852 682.976379,665.560852 
	C682.976379,661.034424 682.976379,656.761292 682.976318,651.492798 
M665.795166,576.841858 
	C662.656189,576.368103 661.319641,577.470764 661.521973,580.870422 
	C661.795593,585.466858 661.589966,590.091675 661.589966,594.849976 
	C668.954773,594.849976 675.950195,594.849976 682.839050,594.849976 
	C682.839050,588.730896 682.839050,582.995483 682.839050,576.840637 
	C677.280212,576.840637 672.006531,576.840637 665.795166,576.841858 
M704.578674,262.708466 
	C711.195679,262.902313 711.775452,261.709198 709.919739,251.128082 
	C708.060059,251.128082 706.028137,251.504028 704.198547,251.055252 
	C699.346191,249.865112 699.019226,252.894348 698.917419,256.270538 
	C698.815186,259.659424 698.497192,263.258942 704.578674,262.708466 
z"/>
<path fill="#082D50" opacity="1.000000" stroke="none" 
	d="
M346.077057,516.946655 
	C335.086334,507.694000 329.777283,496.250519 330.036926,482.139587 
	C330.242279,470.979401 330.077087,459.812347 330.071930,448.648346 
	C330.067291,438.632233 328.003082,435.832367 318.225403,432.810242 
	C318.225403,423.450989 318.225403,414.012512 318.225403,404.197662 
	C319.061920,403.912018 320.098206,403.552155 321.138428,403.204010 
	C327.193909,401.177429 330.016571,397.423523 330.051086,390.897766 
	C330.121613,377.567963 329.906921,364.234894 330.118805,350.908081 
	C330.490692,327.517761 352.688568,308.574677 376.184113,311.632538 
	C376.184113,321.198212 376.184113,330.796722 376.184113,340.591583 
	C375.018341,340.668121 374.053802,340.760681 373.087311,340.790375 
	C364.138000,341.065430 359.679169,345.397888 359.540497,354.469727 
	C359.374969,365.297974 359.231903,376.138855 359.567719,386.959106 
	C359.927094,398.536896 357.470978,409.095459 349.805756,418.519653 
	C358.849426,428.814423 360.033203,441.195557 359.553558,454.120880 
	C359.244843,462.440735 359.475525,470.781464 359.502930,479.112732 
	C359.546173,492.269196 362.593628,495.506409 376.052551,496.402069 
	C376.052551,505.922028 376.052551,515.479187 376.052551,525.544922 
	C365.111725,526.606201 355.257721,523.709961 346.077057,516.946655 
z"/>
<path fill="#082D50" opacity="1.000000" stroke="none" 
	d="
M694.354126,398.469727 
	C697.521240,400.769989 700.450073,402.765594 704.076050,405.236206 
	C704.076050,413.549988 704.076050,422.996429 704.076050,432.890228 
	C693.606750,434.385681 691.613220,441.667816 691.901733,451.012421 
	C692.271606,462.993805 692.182373,475.000366 691.919250,486.987915 
	C691.421387,509.666748 667.899353,529.213501 646.055908,525.104004 
	C646.055908,515.712708 646.055908,506.280426 646.055908,496.946777 
	C646.471619,496.654755 646.725098,496.325134 647.002441,496.303558 
	C659.749390,495.311646 662.755920,492.003693 662.721680,479.086823 
	C662.695190,469.092590 662.711731,459.098206 662.733826,449.103912 
	C662.765686,434.697357 664.095520,430.328247 672.238892,418.261139 
	C662.416931,407.535492 662.323975,394.077209 662.680054,380.454926 
	C662.875854,372.964325 662.713928,365.464355 662.715149,357.968628 
	C662.717285,344.788330 659.641296,341.457489 646.252319,340.563690 
	C646.252319,331.039185 646.252319,321.472198 646.252319,311.859039 
	C660.129089,308.537903 678.783997,317.836548 686.625793,332.160248 
	C690.200439,338.689575 692.168091,345.594238 692.051331,353.155182 
	C691.863525,365.312012 691.874756,377.476318 692.103027,389.631836 
	C692.156677,392.487823 693.412903,395.321289 694.354126,398.469727 
z"/>
<path fill="#092F51" opacity="1.000000" stroke="none" 
	d="
M419.089630,647.312012 
	C418.278381,653.527954 417.507202,659.299622 416.685303,665.450623 
	C409.294830,665.450623 401.915741,665.450623 393.733154,665.450623 
	C397.798584,638.577576 401.837921,611.877075 405.964508,584.599670 
	C412.932648,584.599670 419.704834,584.390564 426.443176,584.775208 
	C427.798492,584.852600 429.531982,586.957031 430.230438,588.513184 
	C435.608765,600.496033 440.771088,612.575745 446.014465,624.619324 
	C446.405945,625.518494 446.906464,626.370178 447.728424,627.966980 
	C451.358795,619.686523 454.746826,611.985474 458.112030,604.274414 
	C460.504669,598.791809 462.732758,593.231140 465.334229,587.850342 
	C466.001129,586.470947 467.761230,584.770142 469.091705,584.705261 
	C475.701080,584.382935 482.334686,584.558167 489.244781,584.558167 
	C493.309662,611.709045 497.313568,638.452759 501.412323,665.829834 
	C494.144104,665.829834 487.515350,665.988159 480.910400,665.663086 
	C479.891144,665.613037 478.325134,663.440979 478.122986,662.084656 
	C476.283173,649.741638 474.696228,637.360962 473.013397,624.994324 
	C472.865936,623.910645 472.562042,622.848267 472.037811,620.417236 
	C467.044495,631.196228 462.605896,640.766724 458.177917,650.342163 
	C456.501678,653.966980 455.134521,657.775574 453.078796,661.168640 
	C451.875854,663.154053 449.615692,665.731689 447.788269,665.766174 
	C445.884521,665.802063 443.092499,663.505737 442.134094,661.528564 
	C436.479248,649.862915 431.251587,637.990356 425.862701,626.195435 
	C425.184143,624.710266 424.403717,623.271667 422.651733,621.806763 
	C421.477722,630.160400 420.303680,638.514038 419.089630,647.312012 
z"/>
<path fill="#092F51" opacity="1.000000" stroke="none" 
	d="
M225.749481,584.774658 
	C228.195953,584.773926 230.177872,584.773926 232.465958,584.773926 
	C232.465958,611.781616 232.465958,638.486145 232.465958,665.720093 
	C227.025085,665.720093 221.405365,666.139587 215.909439,665.498230 
	C213.919983,665.265991 211.884842,662.750488 210.455032,660.839539 
	C202.186478,649.788757 194.101227,638.601013 185.928009,627.478638 
	C184.999420,626.215027 183.908966,625.070374 182.136124,622.975525 
	C182.136124,637.876892 182.136124,651.590881 182.136124,665.568176 
	C174.798706,665.568176 167.880539,665.568176 160.582794,665.568176 
	C160.582794,638.747192 160.582794,612.029785 160.582794,584.844299 
	C166.541473,584.844299 172.639771,584.635925 178.703690,584.999939 
	C180.108612,585.084412 181.673050,586.917419 182.694473,588.294189 
	C191.796478,600.563049 200.793091,612.910034 210.716431,626.456726 
	C210.716431,611.786682 210.716431,598.486328 210.716431,584.775452 
	C216.005814,584.775452 220.645370,584.775452 225.749481,584.774658 
z"/>
<path fill="#092F51" opacity="1.000000" stroke="none" 
	d="
M506.815063,639.281372 
	C504.408173,612.981812 525.347717,595.965454 551.613220,602.421570 
	C568.442505,606.558228 578.011108,620.055237 576.852051,638.022095 
	C575.841492,653.686829 562.828430,666.161926 545.781555,667.808105 
	C525.783813,669.739136 509.598907,658.056030 506.815063,639.281372 
M544.089783,648.145508 
	C552.039307,645.909241 555.892944,640.454834 554.991882,632.714722 
	C554.167053,625.630310 548.924805,620.802856 541.965149,620.718811 
	C534.036987,620.623047 528.242188,626.525635 528.267578,634.671143 
	C528.294128,643.178345 533.842957,648.212646 544.089783,648.145508 
z"/>
<path fill="#092F51" opacity="1.000000" stroke="none" 
	d="
M776.228027,667.964600 
	C761.407715,666.257568 750.738220,659.042847 746.377014,645.217590 
	C742.260742,632.168701 744.715576,619.643982 755.131714,609.886841 
	C767.114136,598.662537 789.687012,598.211243 802.837769,608.517456 
	C815.360352,618.331360 818.892395,636.265686 810.976501,650.944885 
	C805.053650,661.928284 795.041443,666.505249 783.182434,667.836182 
	C781.039368,668.076599 778.854797,667.947083 776.228027,667.964600 
M777.881348,648.170715 
	C786.926025,648.545898 792.711243,643.812012 793.191895,635.642822 
	C793.683350,627.289124 788.524353,621.188477 780.574646,620.722595 
	C773.396729,620.301941 768.064575,624.744446 766.699097,632.283325 
	C765.354004,639.708984 769.139221,645.478943 777.881348,648.170715 
z"/>
<path fill="#092F51" opacity="1.000000" stroke="none" 
	d="
M306.515320,616.566406 
	C310.604034,623.943787 312.096924,631.394653 310.486633,639.888245 
	C295.304016,639.888245 280.260345,639.888245 265.163605,639.888245 
	C266.355011,649.536987 277.190094,654.107422 284.549805,648.065125 
	C288.002533,645.230408 291.332581,644.526001 295.401276,644.673218 
	C299.874176,644.835083 304.357422,644.710083 308.806641,644.710083 
	C309.840973,653.946106 296.691772,665.355835 282.300293,667.672546 
	C265.677063,670.348450 249.356110,660.465698 244.334503,644.633362 
	C239.312866,628.800842 246.483841,611.757080 261.197601,604.562439 
	C276.827515,596.919922 297.964203,602.007935 306.515320,616.566406 
M284.762634,620.615417 
	C276.197784,615.687012 267.673553,618.506470 265.571625,627.150635 
	C273.379456,627.150635 281.133392,627.150635 290.026459,627.150635 
	C288.065918,624.593201 286.715485,622.831665 284.762634,620.615417 
z"/>
<path fill="#082D50" opacity="1.000000" stroke="none" 
	d="
M586.577148,645.999268 
	C586.610596,631.850220 586.641602,618.201050 586.693176,604.551941 
	C586.694275,604.250183 586.930237,603.949341 587.060791,603.649841 
	C599.279114,601.787048 601.744751,602.374023 604.799988,608.310059 
	C606.756592,607.147705 608.650757,605.925415 610.630188,604.861877 
	C629.087219,594.944336 647.560303,605.388245 648.145447,626.314209 
	C648.507263,639.253357 648.212585,652.210876 648.212585,665.497925 
	C641.176025,665.497925 634.309082,665.497925 626.954224,665.497925 
	C626.954224,655.478455 626.984558,645.698486 626.935181,635.919006 
	C626.920959,633.096680 626.871765,630.249329 626.494629,627.459961 
	C625.896790,623.038391 623.684570,620.039673 618.758240,619.928894 
	C614.109619,619.824463 610.110046,622.493408 609.119934,626.979614 
	C608.446838,630.029419 608.310852,633.239258 608.277771,636.381104 
	C608.176575,646.003174 608.241028,655.627014 608.241028,665.542969 
	C600.893982,665.542969 594.004211,665.542969 586.577087,665.542969 
	C586.577087,659.076477 586.577087,652.787781 586.577148,645.999268 
z"/>
<path fill="#092F51" opacity="1.000000" stroke="none" 
	d="
M701.532593,637.897705 
	C701.532959,631.785339 701.532959,626.158264 701.532959,620.073486 
	C697.707642,620.073486 694.282166,620.073486 689.214783,620.073486 
	C690.672668,616.623596 691.170349,613.626282 692.880798,611.713318 
	C700.301514,603.414368 707.986389,595.343628 715.798889,587.410095 
	C717.330078,585.855225 719.852966,585.276978 722.772583,583.822815 
	C722.772583,590.937439 722.772583,596.700928 722.772583,602.999390 
	C728.024048,602.999390 732.906372,602.999390 738.033569,602.999390 
	C738.033569,608.811890 738.033569,614.087219 738.033569,619.933289 
	C733.364258,619.933289 728.655884,619.933289 723.694458,619.933289 
	C723.694458,627.265442 723.606140,634.038147 723.726807,640.807190 
	C723.802124,645.027832 726.843872,646.419434 730.402893,646.768005 
	C733.002075,647.022583 735.646179,646.817871 738.523438,646.817871 
	C738.523438,653.397400 738.523438,659.456116 738.523438,665.495789 
	C716.033691,666.900635 700.716248,666.030701 701.532593,637.897705 
z"/>
<path fill="#092F51" opacity="1.000000" stroke="none" 
	d="
M361.929077,647.401855 
	C362.170776,653.396729 362.173035,659.053406 362.153473,664.710083 
	C362.152435,665.010376 361.966858,665.309998 361.623840,666.342285 
	C354.751587,665.891479 347.622925,665.875671 340.641602,664.853455 
	C331.573364,663.525818 325.667908,656.071655 325.323151,645.994690 
	C325.033936,637.541260 325.263763,629.070068 325.263763,620.202271 
	C321.419678,620.202271 317.997192,620.202271 313.038330,620.202271 
	C314.317657,616.864319 314.674500,613.808105 316.350281,611.926392 
	C323.867401,603.485107 331.680359,595.300171 339.590668,587.222656 
	C340.997925,585.785706 343.371674,585.295166 346.237976,583.915771 
	C346.237976,590.942444 346.237976,596.670410 346.237976,602.948486 
	C351.675140,602.948486 356.584717,602.948486 361.729980,602.948486 
	C361.729980,608.760254 361.729980,614.018127 361.729980,619.811035 
	C357.033325,619.811035 352.303894,619.811035 347.047699,619.811035 
	C347.047699,627.081543 346.852203,633.844788 347.123230,640.589233 
	C347.278320,644.448730 349.949493,646.463745 353.718384,646.781921 
	C356.363068,647.005127 359.028778,646.978638 361.929077,647.401855 
z"/>
<path fill="#2D693E" opacity="1.000000" stroke="none" 
	d="
M609.053162,339.737183 
	C613.507019,339.819275 617.964355,340.046967 622.413696,339.940460 
	C626.473328,339.843384 628.225647,341.753693 628.234009,345.626953 
	C628.235779,346.459503 628.245300,347.292053 628.245239,348.124603 
	C628.243408,394.582123 628.249084,441.039612 628.231567,487.497131 
	C628.227966,496.959778 627.559204,497.574158 617.892639,497.556335 
	C616.561279,497.553894 615.230042,497.502167 613.459717,496.972260 
	C613.016785,493.362457 613.013000,490.253662 613.366760,486.956299 
	C616.994629,486.310303 616.962524,484.017670 616.959473,481.431580 
	C616.909790,439.312042 616.927856,397.192383 616.915955,355.072784 
	C616.915588,353.782623 616.757446,352.492523 616.664246,351.071045 
	C613.944336,350.904907 611.477173,350.754181 609.023071,350.255402 
	C610.206116,348.432281 611.376160,346.957184 612.090210,346.056915 
	C610.981445,343.749695 610.017273,341.743439 609.053162,339.737183 
z"/>
<path fill="#092F51" opacity="1.000000" stroke="none" 
	d="
M844.129456,608.217773 
	C850.493286,602.822205 857.655518,602.402771 865.456665,603.091370 
	C865.456665,609.507996 865.456665,615.759583 865.456665,622.830994 
	C863.087219,622.830994 860.671387,622.826233 858.255615,622.831909 
	C849.501831,622.852661 846.763855,625.180542 846.469910,633.918945 
	C846.156372,643.239563 846.370728,652.577759 846.330872,661.908081 
	C846.325989,663.047729 846.174622,664.186646 846.072754,665.576416 
	C839.112671,665.576416 832.359192,665.576416 825.219788,665.576416 
	C825.219788,644.984131 825.219788,624.421387 825.219788,603.212463 
	C829.183655,603.212463 833.315918,602.917480 837.363037,603.375549 
	C838.743530,603.531799 839.865234,605.633911 841.190674,606.744873 
	C841.992310,607.416870 842.958069,607.892944 844.129456,608.217773 
z"/>
<path fill="#D3D856" opacity="1.000000" stroke="none" 
	d="
M410.120850,339.659973 
	C410.120850,339.659973 410.597900,339.577087 410.818878,340.048706 
	C411.484711,341.322418 412.192078,342.085052 412.319763,342.934845 
	C412.585968,344.705902 412.875824,348.035126 412.582642,348.099152 
	C405.933136,349.551422 408.019501,354.609314 408.017120,358.716217 
	C407.994781,397.142151 408.016052,435.568085 407.975311,473.993988 
	C407.972717,476.455475 406.974060,479.049072 407.492462,481.343048 
	C408.092224,483.997070 409.713898,486.475525 411.163971,488.865112 
	C412.414062,490.925171 414.046021,492.753540 415.509186,494.684326 
	C415.115173,495.153198 414.721161,495.622040 414.327148,496.090912 
	C409.536621,496.090912 404.746063,496.090912 399.955536,496.090912 
	C399.955536,496.090912 399.950928,496.044769 399.909912,495.630920 
	C399.578491,492.765625 399.037537,490.314484 399.034729,487.862732 
	C398.983185,442.986328 398.996155,398.109863 398.995361,353.233398 
	C398.995300,351.238892 398.956604,349.243530 399.001801,347.250061 
	C399.092194,343.265686 401.152863,341.274658 405.137390,340.947235 
	C406.822418,340.808777 408.461090,340.106171 410.120850,339.659973 
z"/>
<path fill="#092F51" opacity="1.000000" stroke="none" 
	d="
M682.976318,651.990479 
	C682.976379,656.761292 682.976379,661.034424 682.976379,665.560852 
	C675.679138,665.560852 668.937317,665.560852 661.884521,665.560852 
	C661.884521,644.938843 661.884521,624.420044 661.884521,603.658813 
	C668.890076,603.658813 675.633118,603.658813 682.976318,603.658813 
	C682.976318,619.714966 682.976318,635.603882 682.976318,651.990479 
z"/>
<path fill="#C3CF68" opacity="1.000000" stroke="none" 
	d="
M400.159637,496.418823 
	C404.746063,496.090912 409.536621,496.090912 414.327148,496.090912 
	C414.721161,495.622040 415.115173,495.153198 415.509186,494.684326 
	C414.046021,492.753540 412.414062,490.925171 411.163971,488.865112 
	C409.713898,486.475525 408.092224,483.997070 407.492462,481.343048 
	C406.974060,479.049072 407.972717,476.455475 407.975311,473.993988 
	C408.016052,435.568085 407.994781,397.142151 408.017120,358.716217 
	C408.019501,354.609314 405.933136,349.551422 412.582642,348.099152 
	C412.875824,348.035126 412.585968,344.705902 412.319763,342.934845 
	C412.192078,342.085052 411.484711,341.322418 411.052551,340.112061 
	C420.428650,339.534210 429.792084,339.364594 439.576508,339.671234 
	C437.738556,343.692139 437.600494,348.637573 432.587708,350.782104 
	C426.140564,350.919586 420.150482,351.088470 414.170471,350.913635 
	C410.415588,350.803894 408.977753,351.904480 408.992432,356.001129 
	C409.140900,397.408051 409.135590,438.815918 409.003876,480.222961 
	C408.989105,484.866425 410.579041,486.171112 415.129486,486.090088 
	C427.088623,485.877136 439.056946,486.181458 450.681030,486.509552 
	C446.414520,486.915314 442.488617,487.091278 437.829041,487.300079 
	C438.567108,490.194397 439.184875,492.616882 439.794434,495.007202 
	C438.462677,495.772888 437.238953,496.476440 436.015198,497.179993 
	C424.131378,497.035522 412.247559,496.891113 400.159637,496.418823 
z"/>
<path fill="#6A8F48" opacity="1.000000" stroke="none" 
	d="
M531.907471,501.017273 
	C531.985901,501.440674 532.064270,501.864105 532.036865,502.970398 
	C532.352112,504.410797 532.773254,505.168243 533.194397,505.925720 
	C539.992920,505.925720 546.791443,505.925720 553.979614,505.925720 
	C553.979614,509.519806 553.979614,512.895996 553.979614,516.752502 
	C539.889771,516.752502 525.945007,516.752502 511.635712,516.337708 
	C511.639587,513.842651 512.708374,511.592041 512.251343,509.712494 
	C510.553497,502.730255 510.607025,502.505005 517.575378,501.933929 
	C518.767883,501.836212 519.881104,500.770355 521.030945,500.151703 
	C523.733276,500.098938 526.435547,500.046204 529.742554,500.286560 
	C530.867371,500.725525 531.387390,500.871399 531.907471,501.017273 
z"/>
<path fill="#6A8F48" opacity="1.000000" stroke="none" 
	d="
M522.111328,339.669556 
	C535.120605,339.570984 548.129822,339.472382 561.582336,339.871826 
	C563.007385,342.214539 563.989197,344.059235 564.297791,344.638916 
	C562.446716,347.228821 561.228638,348.933075 559.552124,350.740448 
	C545.745544,350.781403 532.397461,350.719208 519.041504,350.269348 
	C518.231384,348.923065 517.476868,347.918610 516.612671,347.019531 
	C515.846436,346.222412 514.958374,345.542419 514.124084,344.810730 
	C515.091125,344.209869 516.067383,343.623260 517.023071,343.004944 
	C518.725708,341.903290 520.415894,340.782410 522.111328,339.669556 
z"/>
<path fill="#6A8F48" opacity="1.000000" stroke="none" 
	d="
M565.016235,497.200043 
	C558.382935,497.311981 551.749939,497.469269 545.116150,497.522186 
	C539.298950,497.568604 533.480774,497.497955 527.070190,497.003967 
	C525.848267,496.358826 525.195557,496.247681 524.594299,496.007751 
	C522.729858,495.263763 519.561035,494.788910 519.284241,493.636566 
	C518.498779,490.366364 521.115967,489.036530 524.090698,488.824799 
	C528.866577,488.484802 533.661865,488.373505 538.424194,487.910767 
	C539.995850,487.758057 541.490967,486.818024 543.484680,486.170624 
	C550.970398,486.163788 557.992554,486.224335 565.025146,486.658691 
	C565.029114,490.421692 565.022644,493.810883 565.016235,497.200043 
z"/>
<path fill="#082D50" opacity="1.000000" stroke="none" 
	d="
M666.264038,576.841248 
	C672.006531,576.840637 677.280212,576.840637 682.839050,576.840637 
	C682.839050,582.995483 682.839050,588.730896 682.839050,594.849976 
	C675.950195,594.849976 668.954773,594.849976 661.589966,594.849976 
	C661.589966,590.091675 661.795593,585.466858 661.521973,580.870422 
	C661.319641,577.470764 662.656189,576.368103 666.264038,576.841248 
z"/>
<path fill="#86A259" opacity="1.000000" stroke="none" 
	d="
M520.570618,500.042999 
	C519.881104,500.770355 518.767883,501.836212 517.575378,501.933929 
	C510.607025,502.505005 510.553497,502.730255 512.251343,509.712494 
	C512.708374,511.592041 511.639587,513.842651 511.181946,516.247925 
	C504.980011,516.609253 498.867310,516.645569 492.362762,516.211182 
	C491.362366,514.233215 490.753754,512.725952 490.144836,511.217834 
	C490.803406,511.029114 491.494904,510.830994 492.186371,510.632843 
	C492.210388,510.058319 492.234406,509.483826 492.258423,508.909302 
	C489.062744,508.269928 485.862457,507.652313 482.673706,506.980072 
	C481.443146,506.720642 480.238739,506.337158 479.022430,506.010193 
	C479.455994,505.959076 479.889587,505.907959 480.923279,505.937866 
	C481.708527,506.007202 481.893616,505.995544 482.078674,505.983856 
	C485.307281,505.917114 488.535919,505.850403 492.412964,505.846191 
	C493.189758,505.856476 493.432190,505.791840 493.428070,505.754150 
	C493.401031,505.507202 493.320648,505.266144 493.257721,505.023132 
	C492.540802,501.243774 493.908844,499.701416 497.928070,499.839783 
	C505.314453,500.094147 512.715393,499.926208 520.570618,500.042999 
z"/>
<path fill="#9BB153" opacity="1.000000" stroke="none" 
	d="
M497.105713,497.324585 
	C487.039337,497.314972 476.972961,497.305359 466.447937,496.805298 
	C467.022125,493.918030 468.054932,491.521271 469.346710,488.523529 
	C467.955109,488.385864 465.985046,488.336060 464.079559,487.959473 
	C462.352936,487.618225 460.696747,486.920776 459.469482,486.282166 
	C472.559204,486.271576 485.188904,486.359222 497.860840,486.859497 
	C497.637299,490.622986 497.371521,493.973785 497.105713,497.324585 
z"/>
<path fill="#9BB153" opacity="1.000000" stroke="none" 
	d="
M465.069641,339.549011 
	C474.091034,339.465942 483.112396,339.382843 492.576050,339.847290 
	C493.019958,343.829926 493.021637,347.264954 492.560608,350.793396 
	C483.073761,350.822510 474.049622,350.758179 465.018402,350.257629 
	C465.030792,346.397308 465.050232,342.973145 465.069641,339.549011 
z"/>
<path fill="#C3CF68" opacity="1.000000" stroke="none" 
	d="
M409.766907,339.481354 
	C408.461090,340.106171 406.822418,340.808777 405.137390,340.947235 
	C401.152863,341.274658 399.092194,343.265686 399.001801,347.250061 
	C398.956604,349.243530 398.995300,351.238892 398.995361,353.233398 
	C398.996155,398.109863 398.983185,442.986328 399.034729,487.862732 
	C399.037537,490.314484 399.578491,492.765625 399.888031,495.638550 
	C399.038177,493.921112 397.418060,491.784821 397.410614,489.642944 
	C397.245270,441.950165 397.247772,394.256775 397.251190,346.563477 
	C397.251556,341.395782 399.326111,339.331360 404.439514,339.175507 
	C406.094482,339.125061 407.755005,339.255219 409.766907,339.481354 
z"/>
<path fill="#AEBF57" opacity="1.000000" stroke="none" 
	d="
M464.613190,339.408325 
	C465.050232,342.973145 465.030792,346.397308 464.587128,350.359070 
	C462.103790,350.866699 460.044708,350.836761 457.894226,350.669983 
	C457.473663,350.341797 457.210480,350.422974 456.547241,350.833130 
	C448.403748,350.815735 440.726410,350.741913 433.049042,350.668091 
	C437.600494,348.637573 437.738556,343.692139 440.031250,339.803741 
	C448.095581,339.395844 456.126160,339.331757 464.613190,339.408325 
z"/>
<path fill="#508142" opacity="1.000000" stroke="none" 
	d="
M565.464417,497.340027 
	C565.022644,493.810883 565.029114,490.421692 565.487427,486.580261 
	C574.295654,486.185364 582.651978,486.242737 591.000366,486.677917 
	C590.997131,490.430969 591.001831,493.806213 591.006531,497.181488 
	C582.641907,497.281006 574.277222,497.380524 565.464417,497.340027 
z"/>
<path fill="#86A259" opacity="1.000000" stroke="none" 
	d="
M493.023315,350.700012 
	C493.021637,347.264954 493.019958,343.829926 493.027161,339.983093 
	C502.427368,339.490295 511.818665,339.409271 521.660645,339.498901 
	C520.415894,340.782410 518.725708,341.903290 517.023071,343.004944 
	C516.067383,343.623260 515.091125,344.209869 514.124084,344.810730 
	C514.958374,345.542419 515.846436,346.222412 516.612671,347.019531 
	C517.476868,347.918610 518.231384,348.923065 518.580933,350.382996 
	C509.759888,350.822876 501.391602,350.761444 493.023315,350.700012 
z"/>
<path fill="#AEBF57" opacity="1.000000" stroke="none" 
	d="
M459.009491,486.380341 
	C460.696747,486.920776 462.352936,487.618225 464.079559,487.959473 
	C465.985046,488.336060 467.955109,488.385864 469.346710,488.523529 
	C468.054932,491.521271 467.022125,493.918030 465.980896,496.741516 
	C456.297699,497.198578 446.622955,497.228912 436.481689,497.219635 
	C437.238953,496.476440 438.462677,495.772888 439.794434,495.007202 
	C439.184875,492.616882 438.567108,490.194397 437.829041,487.300079 
	C442.488617,487.091278 446.414520,486.915314 451.054016,486.433167 
	C452.522766,486.174469 453.277924,486.221954 454.124084,486.396240 
	C454.215149,486.523041 454.643219,486.583618 454.643219,486.583618 
	C454.643219,486.583618 454.965851,486.268005 455.368927,486.196655 
	C456.851166,486.210327 457.930328,486.295319 459.009491,486.380341 
z"/>
<path fill="#508142" opacity="1.000000" stroke="none" 
	d="
M560.010559,350.637299 
	C561.228638,348.933075 562.446716,347.228821 564.297791,344.638916 
	C563.989197,344.059235 563.007385,342.214539 562.025635,340.030029 
	C569.728699,339.594971 577.431641,339.499695 585.580078,339.916077 
	C586.081665,340.914917 585.950806,341.634186 586.222717,341.853149 
	C588.838440,343.959290 591.169556,345.878052 585.825867,347.531860 
	C585.286926,347.698639 585.269958,349.552124 584.551758,350.724915 
	C576.065369,350.763702 568.037964,350.700500 560.010559,350.637299 
z"/>
<path fill="#86A259" opacity="1.000000" stroke="none" 
	d="
M497.564880,497.370178 
	C497.371521,493.973785 497.637299,490.622986 498.025085,486.902161 
	C498.147095,486.532166 498.408752,486.740143 498.828735,486.813293 
	C499.532074,486.908020 499.815460,486.929565 500.561096,486.950684 
	C515.022644,486.712799 529.021851,486.475372 543.021118,486.237976 
	C541.490967,486.818024 539.995850,487.758057 538.424194,487.910767 
	C533.661865,488.373505 528.866577,488.484802 524.090698,488.824799 
	C521.115967,489.036530 518.498779,490.366364 519.284241,493.636566 
	C519.561035,494.788910 522.729858,495.263763 524.594299,496.007751 
	C525.195557,496.247681 525.848267,496.358826 526.710693,496.860626 
	C517.303955,497.266815 507.664001,497.341278 497.564880,497.370178 
z"/>
<path fill="#3C7240" opacity="1.000000" stroke="none" 
	d="
M585.010742,350.622864 
	C585.269958,349.552124 585.286926,347.698639 585.825867,347.531860 
	C591.169556,345.878052 588.838440,343.959290 586.222717,341.853149 
	C585.950806,341.634186 586.081665,340.914917 586.020996,340.079712 
	C593.396240,339.629486 600.776123,339.527344 608.604553,339.581177 
	C610.017273,341.743439 610.981445,343.749695 612.090210,346.056915 
	C611.376160,346.957184 610.206116,348.432281 608.564209,350.359039 
	C600.398499,350.748108 592.704651,350.685486 585.010742,350.622864 
z"/>
<path fill="#6A8F48" opacity="1.000000" stroke="none" 
	d="
M729.001099,309.900421 
	C731.702759,309.812958 734.404358,309.725464 737.549927,310.205383 
	C738.341492,320.044678 738.689026,329.316559 739.036560,338.588379 
	C736.004395,338.644531 732.972229,338.700653 729.530212,338.529724 
	C729.120361,338.302704 729.060913,337.940216 729.219116,337.561066 
	C729.588196,335.416260 730.027771,333.643097 729.969910,331.886292 
	C729.728394,324.554993 729.337341,317.228607 729.001099,309.900421 
z"/>
<path fill="#3C7240" opacity="1.000000" stroke="none" 
	d="
M591.454224,497.324402 
	C591.001831,493.806213 590.997131,490.430969 591.462219,486.595154 
	C598.957703,486.471405 605.983459,486.808136 613.009155,487.144897 
	C613.013000,490.253662 613.016785,493.362457 613.035645,496.828674 
	C606.001038,497.279877 598.951477,497.373566 591.454224,497.324402 
z"/>
<path fill="#C3CF68" opacity="1.000000" stroke="none" 
	d="
M729.060913,337.940247 
	C729.060913,337.940216 729.120361,338.302704 729.078369,338.481384 
	C725.293945,338.960083 721.548889,339.460999 717.811218,339.410950 
	C716.938599,339.399292 715.401184,337.556183 715.341919,336.490601 
	C714.900574,328.548462 714.697266,320.591064 714.546875,312.636047 
	C714.495361,309.910339 715.584229,308.208405 718.833679,308.768219 
	C721.048767,309.149841 723.337402,309.104187 725.774109,309.772400 
	C725.918579,310.493988 725.882202,310.692719 725.466919,310.925690 
	C724.025818,312.165009 722.163879,313.291931 722.037170,314.588531 
	C721.430786,320.790405 721.378113,327.043854 720.960449,333.267670 
	C720.706177,337.056274 722.458862,338.382141 726.365356,338.003967 
	C727.520325,337.989716 728.290588,337.964966 729.060913,337.940247 
z"/>
<path fill="#9BB153" opacity="1.000000" stroke="none" 
	d="
M478.699524,505.818726 
	C480.238739,506.337158 481.443146,506.720642 482.673706,506.980072 
	C485.862457,507.652313 489.062744,508.269928 492.258423,508.909302 
	C492.234406,509.483826 492.210388,510.058319 492.186371,510.632843 
	C491.494904,510.830994 490.803406,511.029114 490.144836,511.217834 
	C490.753754,512.725952 491.362366,514.233215 491.941589,516.146729 
	C486.598145,516.658386 481.258545,516.478455 475.977173,516.950317 
	C470.774109,517.415161 471.446808,514.143188 471.342865,510.934296 
	C471.235931,507.631348 471.280884,504.717926 475.899536,505.415344 
	C476.717285,505.538757 477.550537,505.559235 478.699524,505.818726 
z"/>
<path fill="#3C7240" opacity="1.000000" stroke="none" 
	d="
M739.463257,338.682617 
	C738.689026,329.316559 738.341492,320.044678 737.984985,310.329956 
	C740.095947,309.786652 742.215759,309.686249 744.675415,309.569763 
	C744.675415,319.316132 744.675415,328.773315 744.675415,338.776855 
	C743.049194,338.776855 741.469604,338.776855 739.463257,338.682617 
z"/>
<path fill="#C3CF68" opacity="1.000000" stroke="none" 
	d="
M696.984680,306.019135 
	C689.881348,307.677917 688.967285,307.031464 688.953369,300.323029 
	C688.945862,296.693573 688.951294,293.064087 688.945984,289.434631 
	C688.934998,281.987366 688.933594,281.987366 696.479065,283.078430 
	C696.729065,291.055054 696.856873,298.537079 696.984680,306.019135 
z"/>
<path fill="#86A259" opacity="1.000000" stroke="none" 
	d="
M704.150879,262.685852 
	C698.497192,263.258942 698.815186,259.659424 698.917419,256.270538 
	C699.019226,252.894348 699.346191,249.865112 704.198547,251.055252 
	C706.028137,251.504028 708.060059,251.128082 709.919739,251.128082 
	C711.775452,261.709198 711.195679,262.902313 704.150879,262.685852 
z"/>
<path fill="#AEBF57" opacity="1.000000" stroke="none" 
	d="
M719.902832,278.879547 
	C717.287170,278.515167 712.569214,278.542450 712.415833,277.719330 
	C711.711243,273.937256 711.871826,269.827515 712.702393,266.050964 
	C712.893860,265.180481 716.949768,265.159882 719.579407,265.355927 
	C719.921936,270.268982 719.912354,274.574249 719.902832,278.879547 
z"/>
<path fill="#9BB153" opacity="1.000000" stroke="none" 
	d="
M697.400879,306.072510 
	C696.856873,298.537079 696.729065,291.055054 696.786316,283.297607 
	C698.057739,282.981262 699.144104,282.940369 700.621094,283.465088 
	C701.335083,291.331207 701.658508,298.631714 701.981934,305.932220 
	C700.593689,305.996765 699.205383,306.061310 697.400879,306.072510 
z"/>
<path fill="#9BB153" opacity="1.000000" stroke="none" 
	d="
M729.219116,337.561096 
	C728.290588,337.964966 727.520325,337.989716 726.367065,337.536041 
	C725.937988,328.335571 725.891846,319.613525 725.845703,310.891479 
	C725.882202,310.692719 725.918579,310.493988 726.005798,309.995911 
	C726.799744,309.693573 727.542847,309.690521 728.643555,309.793945 
	C729.337341,317.228607 729.728394,324.554993 729.969910,331.886292 
	C730.027771,333.643097 729.588196,335.416260 729.219116,337.561096 
z"/>
<path fill="#6A8F48" opacity="1.000000" stroke="none" 
	d="
M720.295898,278.945007 
	C719.912354,274.574249 719.921936,270.268982 719.922241,265.502930 
	C720.411316,264.995209 720.909668,264.948273 721.962036,264.949677 
	C722.516052,264.998016 722.867615,264.880219 722.867615,264.880219 
	C725.767822,264.298004 727.170837,265.198517 726.957764,268.436462 
	C726.733826,271.840027 726.907654,275.269775 726.907654,279.010437 
	C724.542786,279.010437 722.615845,279.010437 720.295898,278.945007 
z"/>
<path fill="#6A8F48" opacity="1.000000" stroke="none" 
	d="
M702.400208,306.004395 
	C701.658508,298.631714 701.335083,291.331207 701.015503,283.570190 
	C702.737488,283.048218 704.455688,282.986755 706.609619,283.257080 
	C707.045471,283.588837 707.038147,284.047333 706.679443,284.096619 
	C705.951721,284.445465 705.266846,284.738342 705.260376,285.045593 
	C705.135742,290.933502 705.015930,296.824402 705.120300,302.710693 
	C705.133972,303.479828 706.383850,304.227051 707.056885,305.215820 
	C707.052612,305.447205 707.029785,305.909485 707.029785,305.909485 
	C705.625977,305.965179 704.222229,306.020905 702.400208,306.004395 
z"/>
<path fill="#3C7240" opacity="1.000000" stroke="none" 
	d="
M707.038147,284.047333 
	C707.038147,284.047333 707.045471,283.588837 707.027588,283.360291 
	C708.492981,283.037659 709.976257,282.943604 711.875427,282.823181 
	C711.875427,290.447021 711.875427,297.844940 711.875427,305.858063 
	C710.689148,305.936401 709.302673,306.028015 707.472961,306.014526 
	C707.029785,305.909485 707.052612,305.447205 707.342896,304.918030 
	C707.434875,297.608368 707.236511,290.827850 707.038147,284.047333 
z"/>
<path fill="#86A259" opacity="1.000000" stroke="none" 
	d="
M531.952148,500.764313 
	C531.387390,500.871399 530.867371,500.725525 530.189697,500.353333 
	C530.687012,500.255096 531.341919,500.383240 531.952148,500.764313 
z"/>
<path fill="#86A259" opacity="1.000000" stroke="none" 
	d="
M533.082275,505.622009 
	C532.773254,505.168243 532.352112,504.410797 531.980591,503.291382 
	C532.343628,503.725739 532.656921,504.522003 533.082275,505.622009 
z"/>
<path fill="#9BB153" opacity="1.000000" stroke="none" 
	d="
M493.110596,505.250305 
	C493.320648,505.266144 493.401031,505.507202 493.428070,505.754150 
	C493.432190,505.791840 493.189758,505.856476 492.842896,505.903992 
	C492.737457,505.758698 492.850494,505.618073 493.110596,505.250305 
z"/>
<path fill="#9BB153" opacity="1.000000" stroke="none" 
	d="
M481.960236,505.860962 
	C481.893616,505.995544 481.708527,506.007202 481.244995,506.009430 
	C481.258301,505.912659 481.550049,505.825348 481.960236,505.860962 
z"/>
<path fill="#AEBF57" opacity="1.000000" stroke="none" 
	d="
M722.808228,264.766113 
	C722.867615,264.880219 722.516052,264.998016 722.336792,264.962524 
	C722.247681,264.644043 722.444763,264.552368 722.808228,264.766113 
z"/>
<path fill="#F5F9FA" opacity="1.000000" stroke="none" 
	d="
M543.667969,648.203064 
	C533.842957,648.212646 528.294128,643.178345 528.267578,634.671143 
	C528.242188,626.525635 534.036987,620.623047 541.965149,620.718811 
	C548.924805,620.802856 554.167053,625.630310 554.991882,632.714722 
	C555.892944,640.454834 552.039307,645.909241 543.667969,648.203064 
z"/>
<path fill="#F5F9FA" opacity="1.000000" stroke="none" 
	d="
M777.462524,648.111511 
	C769.139221,645.478943 765.354004,639.708984 766.699097,632.283325 
	C768.064575,624.744446 773.396729,620.301941 780.574646,620.722595 
	C788.524353,621.188477 793.683350,627.289124 793.191895,635.642822 
	C792.711243,643.812012 786.926025,648.545898 777.462524,648.111511 
z"/>
<path fill="#F5F9FA" opacity="1.000000" stroke="none" 
	d="
M285.063843,620.842773 
	C286.715485,622.831665 288.065918,624.593201 290.026459,627.150635 
	C281.133392,627.150635 273.379456,627.150635 265.571625,627.150635 
	C267.673553,618.506470 276.197784,615.687012 285.063843,620.842773 
z"/>
<path fill="#FFFFFE" opacity="1.000000" stroke="none" 
	d="
M613.366760,486.956299 
	C605.983459,486.808136 598.957703,486.471405 591.470154,486.217377 
	C582.651978,486.242737 574.295654,486.185364 565.477051,486.206421 
	C557.992554,486.224335 550.970398,486.163788 543.484680,486.170593 
	C529.021851,486.475372 515.022644,486.712799 500.412445,486.724548 
	C499.337250,486.579315 498.873016,486.659729 498.408752,486.740143 
	C498.408752,486.740143 498.147095,486.532166 497.982849,486.489502 
	C485.188904,486.359222 472.559204,486.271576 459.469482,486.282166 
	C457.930328,486.295319 456.851166,486.210327 455.135803,486.127625 
	C454.499634,486.129883 454.033051,486.269440 454.033051,486.269440 
	C453.277924,486.221954 452.522766,486.174469 451.394623,486.203339 
	C439.056946,486.181458 427.088623,485.877136 415.129486,486.090088 
	C410.579041,486.171112 408.989105,484.866425 409.003876,480.222961 
	C409.135590,438.815918 409.140900,397.408051 408.992432,356.001129 
	C408.977753,351.904480 410.415588,350.803894 414.170471,350.913635 
	C420.150482,351.088470 426.140564,350.919586 432.587708,350.782104 
	C440.726410,350.741913 448.403748,350.815735 456.788269,350.904724 
	C457.658813,350.882141 457.822205,350.844452 457.985596,350.806824 
	C460.044708,350.836761 462.103790,350.866699 464.594177,350.795258 
	C474.049622,350.758179 483.073761,350.822510 492.560608,350.793396 
	C501.391602,350.761444 509.759888,350.822876 518.588745,350.770660 
	C532.397461,350.719208 545.745544,350.781403 559.552124,350.740448 
	C568.037964,350.700500 576.065369,350.763702 584.551758,350.724915 
	C592.704651,350.685486 600.398499,350.748108 608.551147,350.707092 
	C611.477173,350.754181 613.944336,350.904907 616.664246,351.071045 
	C616.757446,352.492523 616.915588,353.782623 616.915955,355.072784 
	C616.927856,397.192383 616.909790,439.312042 616.959473,481.431580 
	C616.962524,484.017670 616.994629,486.310303 613.366760,486.956299 
z"/>
<path fill="#C3CF68" opacity="1.000000" stroke="none" 
	d="
M457.894226,350.669983 
	C457.822205,350.844452 457.658813,350.882141 457.254364,350.848267 
	C457.210480,350.422974 457.473663,350.341797 457.894226,350.669983 
z"/>
<path fill="#C3CF68" opacity="1.000000" stroke="none" 
	d="
M454.124084,486.396240 
	C454.033051,486.269440 454.499634,486.129883 454.732727,486.198944 
	C454.965851,486.268005 454.643219,486.583618 454.643219,486.583618 
	C454.643219,486.583618 454.215149,486.523041 454.124084,486.396240 
z"/>
<path fill="#9BB153" opacity="1.000000" stroke="none" 
	d="
M498.828735,486.813293 
	C498.873016,486.659729 499.337250,486.579315 499.950195,486.725037 
	C499.815460,486.929565 499.532074,486.908020 498.828735,486.813293 
z"/>
<path fill="#AEBF57" opacity="1.000000" stroke="none" 
	d="
M725.466919,310.925690 
	C725.891846,319.613525 725.937988,328.335571 725.982422,337.525543 
	C722.458862,338.382141 720.706177,337.056274 720.960449,333.267670 
	C721.378113,327.043854 721.430786,320.790405 722.037170,314.588531 
	C722.163879,313.291931 724.025818,312.165009 725.466919,310.925690 
z"/>
<path fill="#508142" opacity="1.000000" stroke="none" 
	d="
M706.679443,284.096619 
	C707.236511,290.827850 707.434875,297.608368 707.347168,304.686646 
	C706.383850,304.227051 705.133972,303.479828 705.120300,302.710693 
	C705.015930,296.824402 705.135742,290.933502 705.260376,285.045593 
	C705.266846,284.738342 705.951721,284.445465 706.679443,284.096619 
z"/>
</svg>